<svg xmlns="http://www.w3.org/2000/svg" xmlns:xlink="http://www.w3.org/1999/xlink" width="54" height="54" viewBox="0 0 54 54">
  <defs>
    <filter id="Rectangle_181172" x="0" y="0" width="54" height="54" filterUnits="userSpaceOnUse">
      <feOffset dy="3" input="SourceAlpha"/>
      <feGaussianBlur stdDeviation="3" result="blur"/>
      <feFlood flood-opacity="0.161"/>
      <feComposite operator="in" in2="blur"/>
      <feComposite in="SourceGraphic"/>
    </filter>
  </defs>
  <g id="Group_208604" data-name="Group 208604" transform="translate(9 6)">
    <g transform="matrix(1, 0, 0, 1, -9, -6)" filter="url(#Rectangle_181172)">
      <g id="Rectangle_181172-2" data-name="Rectangle 181172" transform="translate(9 6)" fill="#fff" stroke="#f2e6fd" stroke-width="4">
        <rect width="36" height="36" rx="18" stroke="none"/>
        <rect x="2" y="2" width="32" height="32" rx="16" fill="none"/>
      </g>
    </g>
    <g id="Group_208603" data-name="Group 208603" transform="translate(9.332 10.282)">
      <path id="Path_411056" data-name="Path 411056" d="M17.166-26.16a2.2,2.2,0,0,0,1.081-1.685c0-1.179-1.536-2.246-4.1-2.864h0a9.178,9.178,0,0,0,.284-3.145,2.131,2.131,0,0,0-.967-1.741,2.048,2.048,0,0,0-1.877.112A7.034,7.034,0,0,0,9.373-33.8h0A7.186,7.186,0,0,0,7.1-35.483a1.931,1.931,0,0,0-1.82-.112,2.131,2.131,0,0,0-.967,1.741,8.968,8.968,0,0,0,.228,3.145h0C2.036-30.092.5-29.025.5-27.845A2.2,2.2,0,0,0,1.581-26.16a9.107,9.107,0,0,0,2.958,1.236h0a7.613,7.613,0,0,0-.284,3.089A2.131,2.131,0,0,0,5.221-20.1a1.591,1.591,0,0,0,.739.168,5.331,5.331,0,0,0,3.413-1.966h0a5.331,5.331,0,0,0,3.413,1.966,1.365,1.365,0,0,0,.683-.168,2.039,2.039,0,0,0,1.024-1.741,8.771,8.771,0,0,0-.284-3.089h0A9.688,9.688,0,0,0,17.166-26.16ZM9.828-33.349a4.976,4.976,0,0,1,2.9-1.8,1.065,1.065,0,0,1,.4.112c.4.168.626.674.683,1.4a10.224,10.224,0,0,1-.284,2.752h0c-.683-.112-1.365-.225-2.1-.281h0a21.83,21.83,0,0,0-1.593-2.19ZM5.9-27.059h0c.114.281.284.505.4.786.228.393.4.73.626,1.067h0a13.574,13.574,0,0,1-1.593-.225h0C5.505-25.936,5.676-26.5,5.9-27.059ZM5.392-30.2v-.056h0c.455-.056.967-.168,1.479-.225h0v.056c-.228.337-.4.674-.626,1.011l-.341.674v0A8.989,8.989,0,0,1,5.392-30.2Zm1.479,3.65c-.228-.449-.4-.9-.626-1.348h0a12.606,12.606,0,0,1,.626-1.236c.228-.449.512-.955.8-1.4h0q1.706-.084,3.413,0h0c.284.449.569.955.8,1.4.228.393.4.842.626,1.236h0l-.683,1.348c-.228.505-.512.955-.8,1.46h0c-.569,0-1.138.056-1.65.056-.569,0-1.081-.056-1.65-.056h0C7.439-25.6,7.155-26.048,6.871-26.554Zm4.949,1.348a6.375,6.375,0,0,0,.569-1.067c.171-.281.284-.505.455-.786h0c.228.562.4,1.123.569,1.629h0a13.574,13.574,0,0,1-1.593.225Zm1.024-3.538v0a4.176,4.176,0,0,1-.4-.674,9.054,9.054,0,0,0-.569-1.011v-.056h0c.512.056,1.024.168,1.479.225h0v.056C13.184-29.755,13.014-29.249,12.843-28.744Zm-3.47-4.1h0a20.537,20.537,0,0,1,1.251,1.629h0c-.455,0-.853-.056-1.251-.056s-.853.056-1.251.056h0A12.4,12.4,0,0,1,9.373-32.844ZM4.937-33.63c.057-.73.284-1.236.626-1.4a1.353,1.353,0,0,1,.455-.112,4.976,4.976,0,0,1,2.9,1.8h0a22.192,22.192,0,0,0-1.65,2.19h0c-.683.056-1.422.168-2.048.281h0A7.055,7.055,0,0,1,4.937-33.63ZM4.709-25.6h0A8.151,8.151,0,0,1,2.093-26.61c-.626-.393-.967-.786-.967-1.236,0-.393.341-.842.967-1.236a9.707,9.707,0,0,1,2.616-1.011h0c.228.73.512,1.46.8,2.19h0A13.856,13.856,0,0,0,4.709-25.6Zm4.209,3.2a5.093,5.093,0,0,1-2.958,1.853.83.83,0,0,1-.4-.112c-.4-.168-.626-.674-.683-1.4a8.343,8.343,0,0,1,.284-2.752h0c.683.168,1.422.225,2.161.337h0A20.151,20.151,0,0,0,8.918-22.4Zm.455-.505h0a17.86,17.86,0,0,1-1.194-1.516h2.389A17.86,17.86,0,0,1,9.373-22.9Zm4.494.842a1.666,1.666,0,0,1-.683,1.4,1.083,1.083,0,0,1-.455.112c-.739,0-1.763-.674-2.9-1.853h0c.512-.618,1.024-1.348,1.536-2.078h0c.8-.112,1.536-.168,2.218-.337h0A10.224,10.224,0,0,1,13.867-22.061Zm.171-3.538h0a23.058,23.058,0,0,0-.853-2.3h0a11.315,11.315,0,0,0,.8-2.19h0A9.707,9.707,0,0,1,16.6-29.081c.626.393.967.842.967,1.236,0,.449-.341.842-.91,1.236A8.151,8.151,0,0,1,14.038-25.6Z" transform="translate(-0.5 35.775)" fill="#2f5dd8" fill-rule="evenodd"/>
    </g>
  </g>
</svg>
